<?xml version="1.0" encoding="utf-8"?>
<!-- Generator: Adobe Illustrator 17.0.0, SVG Export Plug-In . SVG Version: 6.00 Build 0)  -->
<!DOCTYPE svg PUBLIC "-//W3C//DTD SVG 1.1//EN" "http://www.w3.org/Graphics/SVG/1.1/DTD/svg11.dtd">
<svg version="1.1" id="Layer_1" xmlns="http://www.w3.org/2000/svg" xmlns:xlink="http://www.w3.org/1999/xlink" x="0px" y="0px"
	 width="800px" height="200px" viewBox="0 0 800 200" enable-background="new 0 0 800 200" xml:space="preserve">
<g>
	<g>
		<path fill="#FFFFFF" d="M668.705,137.072c2.857-2.974,5.098-5.536,7.651-7.875c1.529-1.401,1.749-2.877,1.741-4.584
			c-0.045-10.16-0.023-20.32-0.023-30.481c0-0.787,0-1.572,0-2.47c-7.783,1.256-15.136,2.399-22.443,3.704
			c-0.633,0.114-1.359,1.303-1.378,2.004c-0.124,4.505,0.274,9.034-0.155,13.515c-0.472,4.925,0.859,9.264,4.458,13.206
			c0.497,0.543,0.866,1.162,1.315,1.735C662.661,129.386,665.458,132.941,668.705,137.072z M698.689,146.628
			c3.683,0,7.085,0.117,10.462-0.07c1.037-0.057,2.361-0.763,2.937-1.49c2.12-2.673,4.04-5.454,5.922-8.243
			c1.561-2.313,3.789-4.596,4.246-7.069c0.716-3.881,0.19-7.91,0.19-11.819c-7.956-2.199-15.731-4.347-23.756-6.566
			C698.689,123.342,698.689,134.788,698.689,146.628z M125.43,58.971c0,8.565,0,16.848,0,25.431
			c7.998-0.893,15.966,0.118,23.806-1.632c0-1.764,0-3.272,0-4.885c1.554-0.068,2.936-0.13,4.424-0.195
			c-1.538-5.922-3.008-11.725-4.615-17.502c-0.136-0.491-1.187-1.158-1.824-1.164C140.028,58.941,132.833,58.971,125.43,58.971z
			 M797.125,42.676c-7.299,4.518-14.144,8.766-21.006,12.999c-2.644,1.63-3.677,6.823-1.617,9.142
			c4.235,4.764,8.578,9.464,12.88,14.189c3.102,3.408,6.208,6.813,9.743,10.692C797.125,73.713,797.125,58.39,797.125,42.676z
			 M419.033,79.783c2-0.427,3.674-0.662,5.235-1.141c5.329-1.633,10.572-3.454,15.944-4.985c1.999-0.569,2.794-1.226,2.769-3.002
			c-0.12-8.328-0.051-16.656-0.061-24.985c-0.001-0.482-0.101-0.963-0.166-1.539c-0.532,0.162-0.829,0.196-1.037,0.324
			c-6.156,3.79-12.356,7.534-18.416,11.421c-1.641,1.052-3.99,2.486-4.077,3.827C418.801,66.251,419.033,72.827,419.033,79.783z
			 M125.36,137.309c7.515-6.385,14.576-12.45,21.739-18.436c2.882-2.409,3.352-5.083-1.563-6.989
			c-3.74-1.45-7.213-3.344-10.851-4.973c-3.024-1.353-6.116-2.606-9.324-3.966C125.36,114.416,125.36,125.625,125.36,137.309z
			 M596.075,111.189c0-3.038,0.06-5.938-0.053-8.834c-0.021-0.545-0.566-1.262-1.141-1.579c-5.368-2.969-10.776-5.888-16.214-8.774
			c-1.966-1.043-4.043-1.95-6.284-3.022c0,9.224,0,18.019,0,27.059C580.366,114.406,588.07,112.829,596.075,111.189z
			 M282.164,58.563c2.617,4.532,5.559,8.646,7.389,13.059c2.021,4.874,5.569,6.691,11.643,5.725c0.639-0.102,1.391,0.127,1.972-0.05
			c0.75-0.229,1.691-0.59,2.006-1.108c1.408-2.316,2.652-4.698,3.899-7.076c1.808-3.445,3.568-6.907,5.446-10.549
			C303.57,58.563,293.147,58.563,282.164,58.563z M69.875,150.555c0-10.188,0-19.814,0-29.44c-0.357,0-0.557-0.038-0.725,0.005
			c-6.636,1.706-13.253,3.464-19.912,5.112c-3.186,0.789-4.306,3.915-1.917,5.925c5.46,4.594,10.946,9.167,16.463,13.716
			C65.62,147.39,67.587,148.803,69.875,150.555z M372.808,124.36c-1.465,0.219-2.683,0.342-3.861,0.585
			c-5.355,1.105-10.709,2.214-16.04,3.39c-1.277,0.281-3.414,0.711-3.519,1.273c-0.34,1.807-0.745,4.172,0.38,5.48
			c2.77,3.22,6.335,6.002,9.677,8.888c0.987,0.852,2.223,1.971,3.469,2.084c3.236,0.294,6.54,0.1,9.895,0.1
			C372.808,138.806,372.808,131.719,372.808,124.36z M35.97,57.205c5.735,10.298,11.325,20.338,17.242,30.963
			c2.411-10.732,4.672-20.796,6.957-30.963C52.157,57.205,44.393,57.205,35.97,57.205z M345.063,102.328
			c0.828-0.516,1.193-0.864,1.656-1.014c6.447-2.094,12.934-4.11,19.34-6.281c1.115-0.378,2.427-1.261,2.721-2.118
			c0.406-1.187,0.396-2.439-1.426-3.542c-5.028-3.041-9.703-6.458-14.585-9.659c-2.391-1.568-4.933-2.986-7.705-4.652
			C345.063,84.32,345.063,93.108,345.063,102.328z M234.06,118.316c7.208-1.725,14.128-3.469,21.121-5.002
			c2.042-0.448,2.83-1.16,2.735-2.814c-0.115-1.973-0.027-3.954-0.027-5.998c-7.947-2.989-15.777-5.934-23.828-8.962
			C234.06,103.267,234.06,110.669,234.06,118.316z M718.839,78.194c1.909-4.045,3.708-7.698,5.306-11.404
			c0.253-0.588-0.136-1.591-0.663-2.119c-1.8-1.802-3.766-3.499-5.735-5.187c-0.486-0.417-1.215-0.908-1.842-0.916
			c-5.349-0.073-10.702-0.041-16.002-0.041c-0.325,2.695-0.489,4.823,2.39,6.606c2.905,1.799,5.203,4.226,7.834,6.324
			C712.884,73.654,715.721,75.788,718.839,78.194z M442.835,146.676c0-8.211,0-16.1,0-24.292c-4.906,2.308-9.535,4.41-14.023,6.695
			c-0.597,0.304-0.834,1.609-0.615,2.327c1.41,4.616,2.943,9.21,4.583,13.776c0.215,0.6,1.242,1.38,1.959,1.426
			C437.363,146.78,440.013,146.676,442.835,146.676z M177.073,93.012c1.701,5.249,3.296,10.242,4.963,15.221
			c0.198,0.593,0.623,1.396,1.212,1.601c2.677,0.932,5.834-0.124,7.137-2.23c0.335-0.542,0.655-1.09,0.989-1.632
			c2.616-4.256,5.234-8.513,7.966-12.958C191.727,93.012,184.541,93.012,177.073,93.012z M546.679,86.216
			c2.513-2.715,4.724-5.126,6.965-7.519c1.418-1.514,0.815-2.384-1.187-3.141c-2.374-0.896-4.603-2.041-6.926-3.028
			c-3.52-1.495-7.07-2.945-10.573-4.398c-1.39,1.495-2.652,2.882-3.954,4.246c-1.288,1.347-1.55,2.393,0.701,3.391
			c1.417,0.629,2.476,1.769,3.733,2.647C539.135,80.997,542.852,83.563,546.679,86.216z M404.078,109.77
			c1.663-5.511,3.345-11.079,5.036-16.678c-6.262,0-12.059,0-18.137,0c1.748,4.372,3.391,8.55,5.089,12.713
			C397.876,110.24,397.9,110.234,404.078,109.77z M529.874,121.215c-1.437,0.718-2.642,1.374-3.908,1.941
			c-3.902,1.747-5.99,4.225-5.691,7.994c0.148,1.881-0.15,3.835-0.646,5.687c-0.608,2.273-0.182,3.993,2.208,5.515
			c2.714,1.728,5.154,3.737,8.039,5.865C529.874,138.97,529.874,130.18,529.874,121.215z M587.039,140.382
			c-0.116,0.246-0.231,0.49-0.346,0.736c1.725,1.851,3.391,3.741,5.214,5.527c0.486,0.475,1.454,0.89,2.203,0.893
			c14.199,0.051,28.398,0.04,42.598,0.023c0.617-0.001,1.234-0.184,1.852-0.282c-5.553-1.018-11-1.793-16.465-2.465
			c-6.789-0.834-13.602-1.541-20.39-2.386C596.803,141.816,591.927,141.068,587.039,140.382z M206.86,58.657
			c-5.11,0-9.711,0-14.415,0c0.756,6.283,1.495,12.411,2.307,19.157c1.773-0.557,3.945-0.71,4.291-1.432
			C201.812,70.606,204.238,64.721,206.86,58.657z M499.9,68.05c-2.711-2.989-5.265-5.831-7.873-8.64
			c-0.233-0.25-0.807-0.408-1.227-0.413c-2.893-0.036-5.786-0.018-9.18-0.018c3.229,5.11,6.236,9.868,9.38,14.843
			C494.042,71.848,496.899,69.996,499.9,68.05z M770.706,117.305c3.088-2.202,5.972-4.187,8.726-6.282
			c0.565-0.43,1.142-1.502,0.868-1.892c-1.66-2.358-3.565-4.604-5.387-6.887c-0.259,0.071-0.518,0.143-0.777,0.214
			c0,2.447,0,4.893,0,7.94c-3.774-3.29-7.002-6.104-10.229-8.917c-0.153,0.075-0.305,0.149-0.458,0.223
			C765.828,106.818,768.207,111.933,770.706,117.305z M290.832,147.443c-2.94-2.012-5.537-3.493-7.656-5.333
			c-1.612-1.4-2.949-0.984-4.486-0.315c-2.11,0.92-4.17,1.913-6.255,2.871c-1.767,0.812-3.539,1.618-5.308,2.426
			c0.056,0.117,0.113,0.234,0.169,0.351C274.891,147.443,282.487,147.443,290.832,147.443z M502.701,114.807
			c0.183,0.004,0.366,0.009,0.55,0.014c1.353-2.654,2.72-5.302,4.056-7.961c1.684-3.353,1.782-3.498-1.625-5.216
			c-3.404-1.716-7.058-3.109-10.603-4.644c0.596,1.563,1.655,2.728,2.712,3.895c2.62,2.891,5.967,5.496,4.963,9.656
			C502.422,111.92,502.701,113.385,502.701,114.807z M590.041,59.595c4.542,2.967,8.407,5.493,12.611,8.24
			c0.56-3.232,1.068-6.172,1.642-9.483C599.425,59.054,594.805,57.529,590.041,59.595z M191.352,147.461
			c-2.643-3.076-4.977-5.793-7.54-8.776c-2.951,3.054-5.58,5.776-8.479,8.776C180.821,147.461,185.776,147.461,191.352,147.461z"/>
		<path fill="#FFFFFF" d="M668.705,137.072c-3.246-4.13-6.043-7.686-8.834-11.244c-0.449-0.572-0.818-1.19-1.315-1.735
			c-3.598-3.944-4.928-8.281-4.458-13.206c0.429-4.48,0.03-9.009,0.155-13.515c0.019-0.701,0.746-1.891,1.378-2.004
			c7.308-1.306,14.661-2.448,22.443-3.704c0,0.896,0,1.683,0,2.47c0,10.16-0.023,20.321,0.023,30.481
			c0.008,1.708-0.212,3.183-1.741,4.584C673.802,131.536,671.562,134.098,668.705,137.072z"/>
		<path fill="#FFFFFF" d="M698.689,146.628c0-11.839,0-23.286,0-35.258c8.025,2.217,15.8,4.367,23.756,6.566
			c0,3.909,0.526,7.939-0.19,11.819c-0.457,2.473-2.685,4.756-4.245,7.069c-1.882,2.79-3.802,5.57-5.922,8.243
			c-0.577,0.727-1.9,1.433-2.937,1.49C705.774,146.745,702.371,146.628,698.689,146.628z"/>
		<path fill="#FFFFFF" d="M125.43,58.971c7.402,0,14.598-0.03,21.792,0.052c0.636,0.008,1.687,0.674,1.824,1.164
			c1.607,5.777,3.077,11.58,4.615,17.502c-1.488,0.066-2.87,0.127-4.424,0.195c0,1.614,0,3.12,0,4.885
			c-7.84,1.749-15.807,0.739-23.806,1.632C125.43,75.819,125.43,67.536,125.43,58.971z"/>
		<path fill="#FFFFFF" d="M797.125,42.676c0,15.714,0,31.037,0,47.021c-3.536-3.88-6.642-7.284-9.743-10.692
			c-4.301-4.725-8.645-9.426-12.88-14.189c-2.061-2.318-1.027-7.511,1.617-9.142C782.982,51.443,789.827,47.195,797.125,42.676z"/>
		<path fill="#FFFFFF" d="M419.033,79.783c0-6.958-0.232-13.532,0.192-20.08c0.087-1.34,2.436-2.775,4.077-3.827
			c6.06-3.886,12.26-7.632,18.416-11.421c0.208-0.128,0.505-0.162,1.037-0.324c0.065,0.576,0.166,1.057,0.166,1.539
			c0.01,8.329-0.06,16.658,0.061,24.985c0.026,1.775-0.769,2.433-2.769,3.002c-5.372,1.53-10.615,3.352-15.944,4.985
			C422.707,79.121,421.032,79.357,419.033,79.783z"/>
		<path fill="#FFFFFF" d="M125.36,137.309c0-11.683,0-22.893,0-34.364c3.209,1.36,6.301,2.614,9.324,3.966
			c3.638,1.629,7.111,3.523,10.851,4.973c4.914,1.906,4.445,4.58,1.563,6.989C139.936,124.859,132.875,130.924,125.36,137.309z"/>
		<path fill="#FFFFFF" d="M596.075,111.189c-8.005,1.638-15.708,3.216-23.691,4.851c0-9.04,0-17.834,0-27.059
			c2.241,1.072,4.318,1.979,6.284,3.022c5.437,2.884,10.846,5.805,16.214,8.774c0.575,0.318,1.119,1.035,1.141,1.579
			C596.134,105.252,596.075,108.152,596.075,111.189z"/>
		<path fill="#FFFFFF" d="M282.164,58.563c10.983,0,21.406,0,32.354,0c-1.878,3.644-3.637,7.105-5.446,10.549
			c-1.248,2.378-2.491,4.76-3.899,7.076c-0.315,0.518-1.258,0.879-2.006,1.108c-0.581,0.177-1.332-0.052-1.972,0.05
			c-6.072,0.966-9.622-0.852-11.642-5.725C287.723,67.209,284.781,63.096,282.164,58.563z"/>
		<path fill="#FFFFFF" d="M69.875,150.555c-2.288-1.751-4.254-3.164-6.092-4.68c-5.517-4.549-11.003-9.123-16.463-13.716
			c-2.39-2.01-1.269-5.137,1.917-5.925c6.659-1.648,13.276-3.407,19.912-5.112c0.168-0.043,0.368-0.005,0.725-0.005
			C69.875,130.741,69.875,140.367,69.875,150.555z"/>
		<path fill="#FFFFFF" d="M372.808,124.36c0,7.359,0,14.445,0,21.799c-3.355,0-6.659,0.196-9.895-0.1
			c-1.246-0.114-2.482-1.233-3.469-2.084c-3.342-2.886-6.908-5.669-9.677-8.888c-1.126-1.307-0.72-3.673-0.38-5.48
			c0.105-0.562,2.242-0.99,3.519-1.273c5.331-1.176,10.685-2.286,16.04-3.39C370.126,124.702,371.343,124.579,372.808,124.36z"/>
		<path fill="#FFFFFF" d="M35.97,57.205c8.422,0,16.187,0,24.198,0c-2.285,10.167-4.545,20.231-6.957,30.963
			C47.295,77.543,41.704,67.503,35.97,57.205z"/>
		<path fill="#FFFFFF" d="M345.063,102.328c0-9.222,0-18.008,0-27.265c2.773,1.666,5.314,3.084,7.705,4.652
			c4.882,3.201,9.557,6.619,14.585,9.659c1.821,1.102,1.832,2.354,1.426,3.542c-0.293,0.856-1.606,1.74-2.721,2.118
			c-6.407,2.171-12.894,4.187-19.34,6.281C346.255,101.465,345.89,101.812,345.063,102.328z"/>
		<path fill="#FFFFFF" d="M234.06,118.316c0-7.647,0-15.048,0-22.775c8.052,3.028,15.882,5.973,23.828,8.962
			c0,2.043-0.088,4.025,0.027,5.998c0.096,1.654-0.692,2.366-2.735,2.814C248.189,114.846,241.268,116.591,234.06,118.316z"/>
		<path fill="#FFFFFF" d="M718.839,78.194c-3.119-2.406-5.955-4.54-8.713-6.738c-2.631-2.097-4.928-4.525-7.834-6.324
			c-2.879-1.782-2.714-3.911-2.39-6.606c5.3,0,10.652-0.031,16.002,0.041c0.627,0.009,1.356,0.5,1.842,0.916
			c1.969,1.687,3.935,3.384,5.735,5.187c0.528,0.528,0.917,1.531,0.663,2.119C722.546,70.496,720.749,74.148,718.839,78.194z"/>
		<path fill="#FFFFFF" d="M442.835,146.676c-2.821,0-5.473,0.104-8.096-0.068c-0.716-0.047-1.743-0.827-1.959-1.426
			c-1.641-4.566-3.173-9.16-4.583-13.776c-0.22-0.718,0.018-2.023,0.615-2.327c4.487-2.285,9.118-4.385,14.023-6.695
			C442.835,130.577,442.835,138.467,442.835,146.676z"/>
		<path fill="#FFFFFF" d="M177.073,93.012c7.468,0,14.653,0,22.267,0c-2.734,4.446-5.35,8.702-7.966,12.958
			c-0.333,0.542-0.654,1.091-0.989,1.632c-1.303,2.106-4.46,3.162-7.137,2.23c-0.588-0.205-1.013-1.008-1.212-1.601
			C180.369,103.255,178.774,98.26,177.073,93.012z"/>
		<path fill="#FFFFFF" d="M546.679,86.216c-3.827-2.654-7.544-5.22-11.243-7.803c-1.256-0.878-2.316-2.018-3.733-2.647
			c-2.251-0.998-1.989-2.043-0.701-3.391c1.303-1.364,2.566-2.751,3.954-4.246c3.502,1.455,7.052,2.905,10.573,4.398
			c2.325,0.986,4.552,2.132,6.926,3.028c2.002,0.755,2.606,1.627,1.187,3.141C551.403,81.09,549.192,83.501,546.679,86.216z"/>
		<path fill="#FFFFFF" d="M404.078,109.77c-6.178,0.465-6.202,0.471-8.012-3.965c-1.699-4.163-3.342-8.341-5.089-12.713
			c6.078,0,11.875,0,18.137,0C407.423,98.691,405.743,104.258,404.078,109.77z"/>
		<path fill="#FFFFFF" d="M529.874,121.215c0,8.966,0,17.755,0,27.001c-2.885-2.128-5.325-4.136-8.039-5.865
			c-2.388-1.522-2.816-3.241-2.208-5.515c0.496-1.852,0.795-3.805,0.646-5.687c-0.298-3.769,1.789-6.248,5.691-7.994
			C527.233,122.59,528.436,121.933,529.874,121.215z"/>
		<path fill="#FFFFFF" d="M587.039,140.382c4.887,0.686,9.764,1.434,14.666,2.044c6.787,0.845,13.6,1.551,20.39,2.386
			c5.465,0.672,10.911,1.447,16.465,2.465c-0.617,0.098-1.234,0.282-1.852,0.282c-14.2,0.017-28.399,0.028-42.598-0.023
			c-0.749-0.002-1.719-0.417-2.203-0.893c-1.824-1.786-3.489-3.676-5.214-5.527C586.809,140.873,586.923,140.627,587.039,140.382z"
			/>
		<path fill="#FFFFFF" d="M206.86,58.657c-2.622,6.064-5.047,11.948-7.818,17.726c-0.346,0.722-2.518,0.874-4.291,1.432
			c-0.813-6.747-1.551-12.874-2.307-19.157C197.149,58.657,201.75,58.657,206.86,58.657z"/>
		<path fill="#FFFFFF" d="M499.9,68.05c-3.001,1.946-5.858,3.799-8.901,5.771c-3.144-4.975-6.15-9.732-9.38-14.843
			c3.395,0,6.288-0.016,9.18,0.018c0.42,0.005,0.995,0.162,1.227,0.413C494.634,62.219,497.189,65.06,499.9,68.05z"/>
		<path fill="#FFFFFF" d="M770.706,117.305c-2.499-5.372-4.879-10.486-7.257-15.6c0.153-0.075,0.305-0.149,0.458-0.223
			c3.227,2.814,6.455,5.628,10.229,8.917c0-3.048,0-5.494,0-7.94c0.259-0.071,0.518-0.143,0.777-0.214
			c1.822,2.283,3.728,4.529,5.387,6.887c0.274,0.39-0.303,1.461-0.868,1.892C776.678,113.118,773.794,115.103,770.706,117.305z"/>
		<path fill="#FFFFFF" d="M290.832,147.443c-8.345,0-15.94,0-23.535,0c-0.056-0.117-0.113-0.234-0.169-0.351
			c1.769-0.808,3.541-1.615,5.308-2.426c2.084-0.958,4.145-1.951,6.255-2.871c1.537-0.67,2.873-1.085,4.486,0.315
			C285.296,143.949,287.891,145.431,290.832,147.443z"/>
		<path fill="#FFFFFF" d="M502.701,114.807c0-1.422-0.279-2.886,0.052-4.256c1.005-4.16-2.343-6.765-4.963-9.656
			c-1.057-1.167-2.115-2.332-2.712-3.895c3.544,1.535,7.198,2.928,10.603,4.644c3.408,1.719,3.309,1.864,1.626,5.216
			c-1.335,2.659-2.702,5.307-4.056,7.961C503.067,114.816,502.884,114.812,502.701,114.807z"/>
		<path fill="#FFFFFF" d="M590.041,59.595c4.764-2.066,9.384-0.541,14.253-1.243c-0.574,3.312-1.082,6.253-1.642,9.483
			C598.448,65.088,594.583,62.562,590.041,59.595z"/>
		<path fill="#FFFFFF" d="M191.352,147.461c-5.576,0-10.531,0-16.018,0c2.899-3,5.528-5.722,8.479-8.776
			C186.374,141.668,188.709,144.385,191.352,147.461z"/>
	</g>
	<g>
		<path fill="#FFFFFF" d="M776.27,66.705c-0.307,0.196-0.615,0.392-0.922,0.588c0,1.01,0,2.019,0,3.03
			c0,9.156,0.054,18.311-0.037,27.466c-0.024,2.408,0.475,4.315,1.993,6.1c1.714,2.015,3.133,4.348,4.856,6.793
			c-3.783,2.742-7.02,5.089-10.545,7.643c-1.979-4.431-3.907-8.255-5.423-12.276c-1.487-3.943-3.864-6.876-6.893-9.28
			c-0.961-0.763-2.007-1.401-2.92-2.228c-9.183-8.326-18.345-16.679-27.515-25.022c-0.909-0.827-1.828-1.64-3.107-2.786
			c-2.069,4.38-4.009,8.486-6.005,12.714c-6.352-5.002-12.494-9.84-18.962-14.932c0,15.022,0.025,29.42-0.033,43.818
			c-0.008,1.795,0.785,2.197,2.083,2.55c5.955,1.618,11.891,3.33,17.834,5.012c1.183,0.334,2.364,0.682,3.849,1.111
			c0-7.211,0-13.938,0-21.072c1.169,0.764,2.091,1.209,2.846,1.886c11.501,10.308,22.98,20.648,34.464,30.977
			c5.921,5.326,11.837,10.656,17.774,15.957c0.549,0.49,1.228,1.117,1.854,1.126c5.747,0.087,11.495,0.051,17.282,0.051
			c0.112-0.679,0.233-1.071,0.233-1.464c0.014-16.665,0.056-33.329-0.055-49.993c-0.009-1.324-0.851-2.918-1.73-3.911
			c-6.056-6.84-12.24-13.536-18.345-20.322C777.891,69.172,777.125,67.888,776.27,66.705z M528.29,160.596
			c0.877-7.507,1.249-14.335-6.198-17.47c-0.676-0.285-1.306-0.71-1.956-1.075c-1.893-1.063-2.934-2.409-2.226-5.099
			c0.563-2.14,0.612-4.463,0.779-6.715c0.206-2.751,0.551-5.168,3.57-5.932c1.465-0.37,2.72-1.687,4.155-2.341
			c1.676-0.764,2.315-1.892,2.213-3.984c-0.175-3.591-0.099-7.201-0.014-10.799c0.022-0.949,0.207-2.162,0.748-2.78
			c2.551-2.92,5.252-5.673,7.897-8.489c2.883-3.069,5.762-6.143,8.922-9.512c-6.337-4.322-12.007-8.189-17.576-11.987
			c-4.16,4.391-8.136,8.588-12.119,12.791c-5.8-6.266-11.442-12.363-17.106-18.482c-2.857,1.878-5.533,3.636-8.834,5.805
			c-2.684-4.357-5.315-8.711-8.043-12.987c-0.529-0.83-1.427-1.909-2.177-1.931c-5.63-0.162-11.265-0.089-16.899-0.089
			c3.677,4.891,7.683,9.025,11.597,13.265c6.186,6.701,12.275,13.515,18.492,20.179c1.222,1.309,2.74,2.412,4.293,3.162
			c4.342,2.094,8.775,3.952,13.426,6.017c-1.811,3.661-3.197,7.297-5.268,10.347c-1.299,1.913-1.647,3.677-1.64,5.843
			c0.027,7.099,0.278,14.216-0.089,21.292c-0.228,4.399,0.76,6.907,4.505,8.915C515.39,152.107,521.695,156.473,528.29,160.596z
			 M67.744,78.673c5.609,0,10.901-0.05,16.193,0.016c4.002,0.05,8.148,0.738,10.701-4.025c0.079-0.148,0.351-0.152,0.468-0.291
			c4.183-4.944,8.357-9.896,12.387-14.673c-15.405,0-31.193,0-47.085,0c-2.242,10.167-4.453,20.19-6.752,30.613
			c-2.743-4.569-5.353-8.705-7.764-12.982c-2.888-5.124-5.66-10.334-8.366-15.582c-0.825-1.6-1.714-2.301-3.434-2.282
			c-9.624,0.1-19.251,0.043-28.876,0.058c-0.655,0-1.311,0.149-2.551,0.301c5.526,5.883,10.683,11.254,15.695,16.787
			c1.352,1.492,2.666,2.14,4.56,2.106c6.758-0.119,13.519-0.047,20.615-0.047c0,15.861,0,31.423,0,47.361
			c7.52-1.879,14.637-3.72,21.783-5.4c1.847-0.435,2.497-1.254,2.476-3.459c-0.107-11.625-0.05-23.251-0.05-34.878
			C67.744,81.195,67.744,80.093,67.744,78.673z M652.944,78.741c0,5.243,0,10.238,0,15.635c8.063-1.331,15.795-2.607,23.662-3.906
			c0-3.644,0.051-6.927-0.039-10.205c-0.02-0.725-0.386-1.606-0.852-2.121c-5.399-5.976-10.833-11.912-16.308-17.799
			c-0.461-0.496-1.287-0.794-1.944-0.795c-16.773-0.043-33.548-0.06-50.32,0.051c-0.706,0.004-1.79,1.126-2.034,1.969
			c-0.661,2.289-0.965,4.709-1.491,7.498c-3.762-2.451-7.175-4.789-10.704-6.88c-0.699-0.414-2.168-0.29-2.728,0.275
			c-3.729,3.764-7.136,7.95-10.989,11.538c-3.569,3.323-5.038,7.151-4.489,12.286c0.188,1.759,0.56,2.738,2.008,3.498
			c6.873,3.602,13.695,7.327,20.543,10.989c0.298,0.159,0.671,0.141,1.32,0.263c0-7.54,0-14.89,0-22.295
			C616.734,78.741,634.598,78.741,652.944,78.741z M575.208,116.303c-1.63,6.95,0.014,12.128,4.843,16.04
			c1.026,0.831,1.759,2.105,2.739,3.024c2.07,1.94,4.04,3.724,7.085,4.009c8.482,0.791,16.919,2.177,25.39,3.162
			c13.651,1.588,27.238,4.212,41.049,3.401c0.892-0.052,2.053,0.129,2.618-0.416c2.88-2.769,5.604-5.742,8.467-8.731
			c-4.825-6.46-9.448-12.649-14.608-19.559c0,3.791,0,6.611,0,9.33c-18.269,0-36.263,0-54.445,0c0-5.149,0-10.056,0-15.106
			C590.419,113.117,582.701,114.734,575.208,116.303z M327.599,127.573c-0.079-0.285-0.159-0.568-0.238-0.853
			c-22.355,0-44.711,0-67.337,0c0-5.03,0-9.682,0-14.577c-8.21,2.068-16.109,4.057-24.08,6.066c0,2.641-0.045,5.001,0.029,7.356
			c0.021,0.647,0.247,1.461,0.644,1.891c4.933,5.335,9.857,10.684,14.925,15.855c1.189,1.214,2.855,2.362,4.392,2.536
			c6.452,0.727,12.754-0.045,18.647-3.479c1.533-0.894,3.186-1.608,4.857-2.092c0.935-0.271,2.276-0.315,2.993,0.247
			c5.763,4.518,12.023,6.436,19.047,5.479c2.437-0.332,4.941,0.008,7.411-0.091c0.755-0.03,1.696-0.26,2.215-0.803
			C316.641,139.31,322.111,133.43,327.599,127.573z M432.639,145.804c-1.509-4.056-2.672-7.808-4.275-11.308
			c-1.48-3.232-1.07-6.777,1.299-7.883c3.317-1.548,6.517-3.467,9.919-4.705c2.013-0.733,2.155-1.931,2.149-3.822
			c-0.043-13.678-0.021-27.356-0.029-41.035c-0.001-0.881-0.094-1.761-0.159-2.905c-7.623,2.382-15.021,4.65-22.376,7.08
			c-0.536,0.177-1.054,1.518-1.082,2.341c-0.12,3.448-0.051,6.903-0.051,10.52c-2.666,0-4.949-0.083-7.223,0.051
			c-0.68,0.04-1.755,0.521-1.931,1.081c-1.64,5.266-3.122,10.593-4.771,16.325c4.904,0,9.348,0,13.997,0c0,11.58,0,22.854,0,34.259
			C422.855,145.804,427.387,145.804,432.639,145.804z M183.678,137.35c1.647,1.949,3.033,3.871,4.681,5.451
			c1.316,1.263,2.896,2.865,4.45,3c4.248,0.37,8.897,1.363,11.784-3.871c0.119-0.215,0.534-0.201,0.708-0.405
			c4.152-4.855,8.291-9.724,12.588-14.774c-22.331,0-44.684,0-67.281,0c0-3.398,0-6.42,0-10.029
			c-7.819,6.824-15.23,13.276-22.61,19.772c-0.447,0.394-0.895,1.129-0.919,1.726c-0.102,2.52-0.043,5.05-0.043,7.535
			c0.63,0.108,0.894,0.194,1.159,0.194c15.203,0.003,30.405,0.025,45.607-0.063c0.961-0.005,2.082-0.653,2.846-1.376
			C179.01,142.278,181.235,139.864,183.678,137.35z M292.607,78.631c-0.128-0.609-0.122-0.934-0.254-1.157
			c-3.319-5.623-6.606-11.273-10.042-16.806c-0.437-0.703-1.668-1.095-2.536-1.105c-7.422-0.085-14.848,0.071-22.268-0.114
			c-2.617-0.065-4.488,1.003-6.239,2.959c-4.859,5.426-9.781,10.782-14.648,16.199c-0.348,0.387-0.639,1.048-0.644,1.585
			c-0.049,4.912-0.029,9.824-0.029,14.653c8.186,3.098,16.079,6.084,24.317,9.202c0-8.736,0-16.925,0-25.417
			C271.146,78.631,281.805,78.631,292.607,78.631z M346.679,101.756c0,9.124,0,18.012,0,27.247
			c8.153-1.755,16.079-3.463,24.205-5.213c0-4.366,0-8.319,0-12.552c9.088,0,17.898,0,27.327,0c-1.558-3.252-2.918-5.959-4.165-8.73
			c-1.226-2.721-1.727-6.648-3.665-7.953c-2.102-1.416-5.5-0.33-8.326-0.485c-7.959-0.437-15.76,0.086-23.313,3.412
			C354.846,99.198,350.75,100.335,346.679,101.756z M127.03,84.942c0,5.496-0.048,10.717,0.058,15.935
			c0.014,0.675,0.696,1.663,1.282,1.945c7.305,3.502,14.649,6.901,21.474,10.088c0.993-0.695,1.538-1.315,2.171-1.461
			c0.88-0.205,1.824-0.055,2.74-0.055c8.874,0,17.749,0,27.053,0c-1.858-5.961-3.601-11.549-5.422-17.39c-8.52,0-17.003,0-25.79,0
			c0-3.517,0-6.745,0-10.101C142.69,84.252,135.096,84.587,127.03,84.942z M194.131,78.673c-0.78-6.664-1.502-12.831-2.229-19.048
			c-13.872,0-27.485,0-41.45,0c1.416,5.697,2.828,11.18,4.119,16.701c0.409,1.75,1.09,2.418,2.791,2.397
			c8.6-0.107,17.203-0.049,25.806-0.049C186.719,78.673,190.273,78.673,194.131,78.673z M346.505,59.664
			c0,2.89,0.286,5.685-0.065,8.376c-0.576,4.433,0.825,6.889,4.446,8.958c6.64,3.792,12.951,8.31,19.63,12.677
			c0-10.289,0-20.156,0-30.012C362.46,59.664,354.616,59.664,346.505,59.664z M534.846,67.313c6.58,2.824,13.055,5.616,19.547,8.354
			c0.408,0.172,1.153,0.142,1.41-0.156c4.607-5.319,9.163-10.693,13.675-15.99c-8.622,0-17.578-0.006-26.534,0.021
			c-0.417,0.001-0.937,0.174-1.234,0.482C539.449,62.369,537.231,64.768,534.846,67.313z M67.744,160.831
			c0-3.038-0.131-5.397,0.038-7.728c0.16-2.21-0.578-3.582-2.172-4.823c-4.414-3.44-8.713-7.067-13.081-10.584
			c-2.845-2.291-5.731-4.519-9.024-7.11c0,3.197,0.279,5.781-0.057,8.261c-0.724,5.321,0.791,8.667,5.578,10.293
			c2.129,0.723,3.973,2.484,5.964,3.736C59.034,155.414,63.091,157.929,67.744,160.831z M304.675,78.938
			c3.436-0.299,7.039,0.622,8.822-0.991c5.991-5.417,11.335-11.737,16.926-17.711c-5.22-0.711-10.122-0.734-15.022-0.672
			c-0.444,0.005-1.069,0.437-1.295,0.877C311.046,66.356,308.043,72.307,304.675,78.938z M198.005,78.279
			c4.321,1.222,7.142-0.285,9.748-3.375c4.319-5.123,8.915-9.952,13.832-15.388c-4.98,0-9.178-0.049-13.374,0.049
			c-0.674,0.015-1.664,0.483-1.952,1.079C203.475,66.403,200.81,72.236,198.005,78.279z M188.514,111.125
			c3.779,1.088,6.534-0.269,9.001-3.484c2.307-3.006,5.121-5.524,7.71-8.257c1.495-1.578,2.987-3.159,5.001-5.288
			c-4.016,0-7.277-0.031-10.535,0.036c-0.457,0.01-1.072,0.374-1.332,0.795C195.064,100.274,191.821,105.661,188.514,111.125z
			 M724.272,145.805c0-5.321,0-10.285,0-15.977c-3.789,5.586-7.198,10.611-10.837,15.977
			C717.438,145.805,720.794,145.805,724.272,145.805z M359.922,145.778c-4.759-3.67-8.831-6.809-13.233-10.204
			c0,3.992,0,7.03,0,10.204C350.947,145.778,355.019,145.778,359.922,145.778z"/>
		<path fill="#FFFFFF" d="M776.27,66.705c0.855,1.183,1.621,2.467,2.58,3.533c6.105,6.786,12.288,13.483,18.345,20.322
			c0.88,0.993,1.722,2.588,1.73,3.911c0.113,16.664,0.069,33.329,0.055,49.993c0,0.393-0.121,0.786-0.233,1.464
			c-5.788,0-11.535,0.036-17.282-0.051c-0.625-0.01-1.305-0.636-1.854-1.126c-5.937-5.302-11.855-10.632-17.774-15.957
			c-11.484-10.331-22.964-20.669-34.464-30.977c-0.756-0.677-1.679-1.122-2.846-1.886c0,7.134,0,13.861,0,21.072
			c-1.485-0.43-2.666-0.777-3.849-1.111c-5.942-1.681-11.877-3.394-17.834-5.012c-1.3-0.353-2.091-0.753-2.083-2.55
			c0.057-14.398,0.032-28.796,0.032-43.818c6.467,5.093,12.609,9.93,18.962,14.932c1.997-4.228,3.936-8.334,6.005-12.714
			c1.279,1.146,2.198,1.959,3.107,2.786c9.17,8.344,18.333,16.696,27.515,25.022c0.912,0.827,1.959,1.465,2.92,2.228
			c3.029,2.405,5.406,5.338,6.893,9.28c1.516,4.02,3.444,7.846,5.423,12.276c3.525-2.554,6.762-4.901,10.545-7.643
			c-1.724-2.445-3.142-4.778-4.856-6.793c-1.519-1.786-2.017-3.693-1.993-6.1c0.09-9.154,0.037-18.31,0.037-27.466
			c0-1.01,0-2.019,0-3.03C775.655,67.097,775.962,66.901,776.27,66.705z"/>
		<path fill="#FFFFFF" d="M528.29,160.596c-6.595-4.123-12.9-8.489-19.547-12.054c-3.744-2.009-4.733-4.517-4.505-8.915
			c0.367-7.076,0.116-14.192,0.089-21.292c-0.009-2.166,0.34-3.93,1.64-5.843c2.071-3.051,3.458-6.687,5.268-10.347
			c-4.651-2.065-9.083-3.923-13.426-6.017c-1.553-0.749-3.071-1.853-4.293-3.162c-6.217-6.663-12.306-13.478-18.492-20.179
			c-3.914-4.24-7.92-8.374-11.597-13.265c5.634,0,11.269-0.074,16.899,0.089c0.75,0.022,1.647,1.101,2.177,1.931
			c2.728,4.276,5.359,8.63,8.043,12.987c3.301-2.169,5.977-3.927,8.834-5.805c5.663,6.119,11.306,12.216,17.106,18.482
			c3.983-4.203,7.96-8.401,12.119-12.791c5.568,3.798,11.239,7.664,17.576,11.987c-3.159,3.369-6.039,6.442-8.922,9.512
			c-2.645,2.816-5.346,5.569-7.897,8.489c-0.54,0.618-0.725,1.831-0.748,2.78c-0.084,3.598-0.161,7.21,0.014,10.799
			c0.103,2.092-0.537,3.221-2.213,3.984c-1.435,0.654-2.689,1.971-4.155,2.341c-3.019,0.764-3.365,3.181-3.57,5.932
			c-0.169,2.252-0.216,4.577-0.779,6.715c-0.708,2.69,0.332,4.037,2.226,5.099c0.649,0.365,1.279,0.789,1.956,1.075
			C529.539,146.261,529.166,153.089,528.29,160.596z"/>
		<path fill="#FFFFFF" d="M67.744,78.673c0,1.42,0,2.522,0,3.623c0,11.626-0.057,23.254,0.05,34.878
			c0.021,2.204-0.629,3.025-2.476,3.459c-7.146,1.682-14.261,3.522-21.783,5.4c0-15.937,0-31.499,0-47.361
			c-7.096,0-13.857-0.073-20.615,0.047c-1.895,0.034-3.209-0.614-4.56-2.106C13.348,71.08,8.191,65.709,2.666,59.826
			c1.24-0.152,1.896-0.301,2.551-0.302c9.625-0.015,19.252,0.041,28.876-0.058c1.72-0.017,2.609,0.684,3.434,2.282
			c2.706,5.248,5.478,10.457,8.366,15.582c2.41,4.277,5.019,8.413,7.764,12.982c2.299-10.423,4.51-20.445,6.752-30.613
			c15.893,0,31.68,0,47.085,0c-4.03,4.778-8.204,9.729-12.387,14.673c-0.118,0.14-0.389,0.143-0.468,0.291
			c-2.552,4.763-6.698,4.075-10.701,4.025C78.645,78.624,73.353,78.673,67.744,78.673z"/>
		<path fill="#FFFFFF" d="M652.944,78.741c-18.347,0-36.21,0-54.364,0c0,7.405,0,14.755,0,22.295
			c-0.649-0.123-1.023-0.104-1.32-0.263c-6.848-3.662-13.671-7.387-20.543-10.989c-1.449-0.759-1.82-1.739-2.008-3.498
			c-0.549-5.136,0.92-8.964,4.489-12.286c3.853-3.588,7.258-7.774,10.989-11.538c0.561-0.566,2.029-0.689,2.728-0.275
			c3.529,2.091,6.941,4.428,10.704,6.88c0.525-2.79,0.829-5.209,1.491-7.498c0.243-0.843,1.328-1.964,2.034-1.969
			c16.773-0.11,33.547-0.094,50.32-0.051c0.657,0.002,1.483,0.3,1.944,0.795c5.475,5.887,10.91,11.823,16.308,17.799
			c0.465,0.515,0.832,1.396,0.852,2.121c0.091,3.278,0.039,6.56,0.039,10.205c-7.867,1.299-15.599,2.575-23.662,3.906
			C652.944,88.979,652.944,83.985,652.944,78.741z"/>
		<path fill="#FFFFFF" d="M575.208,116.303c7.491-1.569,15.211-3.185,23.138-4.845c0,5.05,0,9.956,0,15.106
			c18.182,0,36.176,0,54.445,0c0-2.72,0-5.539,0-9.33c5.16,6.909,9.783,13.099,14.608,19.559c-2.864,2.99-5.588,5.962-8.467,8.731
			c-0.566,0.544-1.727,0.364-2.618,0.416c-13.809,0.811-27.396-1.814-41.049-3.401c-8.471-0.985-16.907-2.372-25.39-3.162
			c-3.045-0.284-5.015-2.068-7.085-4.009c-0.98-0.919-1.713-2.193-2.739-3.024C575.222,128.431,573.579,123.253,575.208,116.303z"/>
		<path fill="#FFFFFF" d="M327.599,127.573c-5.488,5.857-10.957,11.736-16.495,17.534c-0.519,0.543-1.46,0.773-2.215,0.803
			c-2.47,0.098-4.974-0.241-7.411,0.091c-7.024,0.957-13.284-0.962-19.047-5.479c-0.717-0.563-2.058-0.517-2.993-0.247
			c-1.67,0.484-3.324,1.198-4.857,2.092c-5.893,3.434-12.194,4.207-18.647,3.479c-1.537-0.173-3.201-1.321-4.392-2.536
			c-5.068-5.171-9.992-10.519-14.925-15.855c-0.397-0.43-0.623-1.243-0.644-1.891c-0.076-2.355-0.029-4.714-0.029-7.356
			c7.973-2.009,15.871-3.998,24.08-6.066c0,4.896,0,9.547,0,14.577c22.626,0,44.981,0,67.337,0
			C327.44,127.005,327.52,127.29,327.599,127.573z"/>
		<path fill="#FFFFFF" d="M432.639,145.804c-5.251,0-9.784,0-14.533,0c0-11.406,0-22.679,0-34.259c-4.649,0-9.093,0-13.997,0
			c1.649-5.733,3.133-11.059,4.771-16.325c0.174-0.561,1.25-1.041,1.931-1.081c2.274-0.134,4.557-0.051,7.223-0.051
			c0-3.616-0.069-7.072,0.051-10.52c0.028-0.822,0.547-2.164,1.082-2.341c7.355-2.431,14.753-4.699,22.376-7.08
			c0.065,1.144,0.159,2.024,0.159,2.905c0.01,13.678-0.014,27.356,0.029,41.035c0.007,1.893-0.136,3.09-2.149,3.822
			c-3.401,1.238-6.602,3.158-9.919,4.705c-2.37,1.105-2.779,4.65-1.299,7.883C429.966,137.996,431.129,141.749,432.639,145.804z"/>
		<path fill="#FFFFFF" d="M183.678,137.35c-2.443,2.514-4.668,4.928-7.029,7.161c-0.765,0.723-1.885,1.37-2.846,1.376
			c-15.202,0.088-30.405,0.066-45.607,0.063c-0.264,0-0.529-0.085-1.159-0.194c0-2.486-0.058-5.014,0.043-7.535
			c0.024-0.597,0.472-1.332,0.919-1.726c7.38-6.497,14.791-12.949,22.61-19.772c0,3.609,0,6.63,0,10.029c22.597,0,44.95,0,67.281,0
			c-4.297,5.051-8.436,9.92-12.588,14.774c-0.174,0.203-0.59,0.189-0.708,0.405c-2.886,5.234-7.537,4.241-11.784,3.871
			c-1.554-0.135-3.134-1.737-4.45-3C186.711,141.221,185.325,139.299,183.678,137.35z"/>
		<path fill="#FFFFFF" d="M292.607,78.631c-10.802,0-21.461,0-32.341,0c0,8.492,0,16.681,0,25.417
			c-8.239-3.118-16.132-6.105-24.317-9.202c0-4.829-0.021-9.741,0.029-14.653c0.005-0.538,0.295-1.198,0.644-1.585
			c4.867-5.418,9.789-10.773,14.648-16.199c1.751-1.956,3.622-3.024,6.239-2.959c7.42,0.184,14.846,0.028,22.268,0.114
			c0.868,0.01,2.098,0.402,2.536,1.105c3.436,5.532,6.723,11.183,10.042,16.806C292.484,77.697,292.479,78.022,292.607,78.631z"/>
		<path fill="#FFFFFF" d="M346.679,101.756c4.07-1.421,8.166-2.557,12.062-4.273c7.553-3.327,15.355-3.849,23.313-3.412
			c2.826,0.155,6.223-0.931,8.326,0.485c1.938,1.305,2.44,5.233,3.665,7.953c1.248,2.77,2.607,5.478,4.165,8.73
			c-9.429,0-18.239,0-27.327,0c0,4.233,0,8.186,0,12.552c-8.126,1.75-16.053,3.457-24.205,5.213
			C346.679,119.768,346.679,110.88,346.679,101.756z"/>
		<path fill="#FFFFFF" d="M127.03,84.942c8.067-0.356,15.66-0.69,23.57-1.04c0,3.356,0,6.584,0,10.101c8.787,0,17.269,0,25.79,0
			c1.82,5.841,3.563,11.429,5.422,17.39c-9.304,0-18.179,0-27.053,0c-0.917,0-1.861-0.149-2.74,0.055
			c-0.632,0.147-1.177,0.766-2.171,1.461c-6.827-3.188-14.171-6.586-21.474-10.088c-0.587-0.281-1.269-1.269-1.282-1.945
			C126.982,95.66,127.03,90.439,127.03,84.942z"/>
		<path fill="#FFFFFF" d="M194.131,78.673c-3.858,0-7.411,0-10.965,0c-8.601,0-17.204-0.057-25.806,0.049
			c-1.701,0.022-2.382-0.646-2.791-2.397c-1.291-5.52-2.703-11.004-4.119-16.701c13.965,0,27.578,0,41.45,0
			C192.629,65.842,193.35,72.01,194.131,78.673z"/>
		<path fill="#FFFFFF" d="M346.505,59.664c8.111,0,15.955,0,24.011,0c0,9.856,0,19.723,0,30.012
			c-6.679-4.367-12.99-8.885-19.63-12.677c-3.621-2.068-5.022-4.526-4.446-8.958C346.791,65.35,346.505,62.553,346.505,59.664z"/>
		<path fill="#FFFFFF" d="M534.846,67.313c2.385-2.545,4.603-4.945,6.865-7.29c0.297-0.307,0.816-0.481,1.234-0.482
			c8.955-0.027,17.912-0.021,26.534-0.021c-4.511,5.296-9.067,10.672-13.675,15.99c-0.258,0.298-1.002,0.328-1.41,0.156
			C547.901,72.929,541.426,70.137,534.846,67.313z"/>
		<path fill="#FFFFFF" d="M67.744,160.831c-4.654-2.9-8.71-5.415-12.754-7.956c-1.992-1.252-3.835-3.013-5.964-3.736
			c-4.787-1.625-6.302-4.973-5.578-10.293c0.338-2.478,0.057-5.064,0.057-8.261c3.293,2.591,6.178,4.819,9.024,7.11
			c4.368,3.517,8.666,7.144,13.081,10.584c1.593,1.241,2.332,2.614,2.172,4.823C67.613,155.434,67.744,157.792,67.744,160.831z"/>
		<path fill="#FFFFFF" d="M304.675,78.938c3.367-6.631,6.371-12.582,9.43-18.497c0.227-0.438,0.852-0.87,1.295-0.877
			c4.901-0.062,9.803-0.039,15.022,0.672c-5.592,5.974-10.935,12.294-16.926,17.711C311.714,79.56,308.112,78.64,304.675,78.938z"/>
		<path fill="#FFFFFF" d="M198.005,78.279c2.806-6.043,5.47-11.876,8.253-17.636c0.288-0.596,1.278-1.063,1.952-1.079
			c4.196-0.097,8.394-0.049,13.374-0.049c-4.917,5.436-9.513,10.265-13.832,15.388C205.147,77.995,202.326,79.501,198.005,78.279z"
			/>
		<path fill="#FFFFFF" d="M188.514,111.125c3.307-5.463,6.55-10.85,9.844-16.196c0.259-0.421,0.876-0.786,1.332-0.795
			c3.259-0.067,6.519-0.036,10.535-0.036c-2.013,2.129-3.505,3.71-5.001,5.288c-2.59,2.734-5.404,5.25-7.71,8.257
			C195.048,110.855,192.293,112.212,188.514,111.125z"/>
		<path fill="#FFFFFF" d="M724.272,145.805c-3.477,0-6.834,0-10.837,0c3.639-5.365,7.049-10.39,10.837-15.977
			C724.272,135.521,724.272,140.484,724.272,145.805z"/>
		<path fill="#FFFFFF" d="M359.922,145.778c-4.904,0-8.977,0-13.233,0c0-3.173,0-6.212,0-10.204
			C351.092,138.969,355.164,142.108,359.922,145.778z"/>
	</g>
</g>
<text transform="matrix(1.0114 0 0 1 596.0568 292.8515)" font-family="'BatmanForeverAlternate'" font-size="66.6798">2015</text>
</svg>
